HIERARCHY
ROOT Hips
{
	OFFSET -1.602300 6.242603 43.997101
	CHANNELS 6 Xposition Yposition Zposition Zrotation Xrotation Yrotation
	JOINT Chest
	{
		OFFSET -0.204900 1.598101 7.917301
		CHANNELS 6 Xposition Yposition Zposition Zrotation Xrotation Yrotation
		JOINT Chest2
		{
			OFFSET 0.000000 0.000000 3.404099
			CHANNELS 6 Xposition Yposition Zposition Zrotation Xrotation Yrotation
			JOINT Neck
			{
				OFFSET 0.000000 0.000000 7.928600
				CHANNELS 6 Xposition Yposition Zposition Zrotation Xrotation Yrotation
				JOINT Head
				{
					OFFSET 0.000000 0.000000 2.173897
					CHANNELS 6 Xposition Yposition Zposition Zrotation Xrotation Yrotation
					End Site
					{
						OFFSET 0.000000 0.000001 10.404503
					}
				}
			}
			JOINT LeftCollar
			{
				OFFSET 2.833800 -1.396299 4.843300
				CHANNELS 6 Xposition Yposition Zposition Zrotation Xrotation Yrotation
				JOINT LeftShoulder
				{
					OFFSET 4.363600 0.000000 0.000000
					CHANNELS 6 Xposition Yposition Zposition Zrotation Xrotation Yrotation
					JOINT LeftElbow
					{
						OFFSET 0.000000 -0.000001 -10.306900
						CHANNELS 6 Xposition Yposition Zposition Zrotation Xrotation Yrotation
						JOINT LeftWrist
						{
							OFFSET 0.000000 -0.000001 -12.404900
							CHANNELS 6 Xposition Yposition Zposition Zrotation Xrotation Yrotation
							End Site
							{
								OFFSET 0.000000 0.000000 -2.173901
							}
						}
					}
				}
			}
			JOINT RightCollar
			{
				OFFSET -2.354800 -1.897200 5.063099
				CHANNELS 6 Xposition Yposition Zposition Zrotation Xrotation Yrotation
				JOINT RightShoulder
				{
					OFFSET -4.375800 0.000000 0.000000
					CHANNELS 6 Xposition Yposition Zposition Zrotation Xrotation Yrotation
					JOINT RightElbow
					{
						OFFSET 0.000000 -0.000001 -10.005001
						CHANNELS 6 Xposition Yposition Zposition Zrotation Xrotation Yrotation
						JOINT RightWrist
						{
							OFFSET 0.000000 -0.000001 -13.174900
							CHANNELS 6 Xposition Yposition Zposition Zrotation Xrotation Yrotation
							End Site
							{
								OFFSET 0.000000 0.000000 -2.173901
							}
						}
					}
				}
			}
		}
	}
	JOINT LeftHip
	{
		OFFSET 2.240600 0.386800 -2.614101
		CHANNELS 6 Xposition Yposition Zposition Zrotation Xrotation Yrotation
		JOINT LeftKnee
		{
			OFFSET 0.000000 -0.000001 -18.592899
			CHANNELS 6 Xposition Yposition Zposition Zrotation Xrotation Yrotation
			JOINT LeftAnkle
			{
				OFFSET 0.000000 -0.000001 -18.765800
				CHANNELS 6 Xposition Yposition Zposition Zrotation Xrotation Yrotation
				End Site
				{
					OFFSET 0.000000 -8.655000 0.000000
				}
			}
		}
	}
	JOINT RightHip
	{
		OFFSET -2.014900 -0.220900 -2.615898
		CHANNELS 6 Xposition Yposition Zposition Zrotation Xrotation Yrotation
		JOINT RightKnee
		{
			OFFSET 0.000000 -0.000001 -18.633900
			CHANNELS 6 Xposition Yposition Zposition Zrotation Xrotation Yrotation
			JOINT RightAnkle
			{
				OFFSET 0.000000 -0.000001 -18.285101
				CHANNELS 6 Xposition Yposition Zposition Zrotation Xrotation Yrotation
				End Site
				{
					OFFSET 0.000000 -7.524500 0.000000
				}
			}
		}
	}
}
MOTION
Frames: 4
Frame Time: 0.041667
-5.766600 25.165907 8.475815 2.897603 5.634025 4.705108 -0.204900 1.598099 7.917301 -3.080607 0.834287 -2.641089 -0.000000 -0.000000 3.404103 -3.993087 -17.438950 -2.310632 0.000000 -0.000002 7.928598 -40.130380 12.832803 19.865680 -0.000001 -0.000000 2.173907 -3.791196 2.309863 -5.326833 2.833799 -1.396301 4.843299 28.000868 -2.463877 -5.548545 4.363593 0.000005 -0.000003 -16.269260 33.147755 -121.648319 0.000000 0.000001 -10.306895 563.777474 -187.186170 535.400716 0.000011 0.000001 -12.404899 61.995038 373.568208 -341.564100 -2.354801 -1.897201 5.063102 -0.453414 7.223532 -3.912428 -4.375793 -0.000000 -0.000010 1.988842 2.620688 130.450630 -0.000002 -0.000002 -10.004996 -552.460343 -180.633041 -539.344522 -0.000003 0.000000 -13.174898 -55.838497 3.121708 349.527336 2.240596 0.386799 -2.614106 143.226690 -29.271011 110.483651 -0.000001 -0.000001 -18.592894 -116.437677 33.788802 135.326483 -0.000001 0.000001 -18.765799 10.216726 34.025906 -5.155375 -2.014896 -0.220896 -2.615897 -117.426620 -14.022791 -97.731292 -0.000001 0.000004 -18.633883 171.778301 25.527484 -175.498186 -0.000006 -0.000008 -18.285084 -15.250515 32.012379 -207.793411
-5.765800 25.158201 8.485909 2.873577 5.623941 4.687194 -0.204900 1.598102 7.917308 -3.057524 0.793429 -2.647078 0.000001 0.000001 3.404099 -4.029369 -17.487484 -2.319871 0.000001 0.000002 7.928596 -40.471197 12.286643 20.067722 -0.000001 -0.000001 2.173901 -3.710508 2.172438 -5.391200 2.833799 -1.396298 4.843301 27.834110 -2.310799 -5.522422 4.363596 0.000010 -0.000010 -18.375687 29.441725 -121.971592 0.000002 0.000001 -10.306890 559.451178 -187.522748 536.085483 0.000003 0.000004 -12.404892 65.540064 372.661815 -341.911238 -2.354800 -1.897198 5.063100 -0.569348 7.374951 -4.318767 -4.375795 -0.000002 -0.000005 2.284182 2.684337 132.013145 -0.000001 0.000001 -10.004993 -555.594471 -180.443598 -539.208464 0.000003 -0.000003 -13.174896 -55.675027 2.513602 350.059735 2.240599 0.386805 -2.614103 143.230542 -29.041654 110.455012 -0.000001 0.000002 -18.592894 -116.810687 33.823992 135.451913 0.000001 -0.000000 -18.765799 10.100376 34.014182 -5.127402 -2.014897 -0.220899 -2.615899 -117.375544 -14.261923 -97.686752 0.000000 0.000003 -18.633881 171.653664 25.564635 -175.508117 -0.000006 -0.000007 -18.285088 -15.194642 32.025968 -207.871890
-5.765900 25.152004 8.495705 2.863983 5.614321 4.677974 -0.204900 1.598101 7.917306 -3.047390 0.761306 -2.668147 0.000000 -0.000001 3.404100 -4.055354 -17.546411 -2.328113 0.000001 -0.000002 7.928602 -40.782674 11.791462 20.171502 0.000003 -0.000000 2.173900 -3.807401 2.047107 -5.355177 2.833799 -1.396303 4.843301 27.365317 -1.908344 -5.255418 4.363589 0.000007 -0.000011 -21.735380 23.093773 -122.294701 0.000001 0.000001 -10.306890 562.945339 -187.049033 536.013029 0.000004 -0.000000 -12.404892 58.020025 371.326485 -342.362467 -2.354801 -1.897203 5.063105 -0.954044 7.510629 -4.745308 -4.375795 -0.000000 -0.000007 5.045689 0.729523 133.559404 0.000000 -0.000004 -10.004986 -555.735828 -180.389790 -539.031371 -0.000000 -0.000001 -13.174895 -55.152090 1.764000 350.457061 2.240598 0.386799 -2.614101 143.227551 -28.840610 110.440573 0.000000 -0.000000 -18.592890 -117.183588 33.876943 135.587642 0.000000 0.000000 -18.765797 9.968972 33.990774 -5.111362 -2.014895 -0.220895 -2.615899 -117.338525 -14.475900 -97.643210 0.000000 0.000003 -18.633883 171.538166 25.601158 -175.516081 -0.000005 -0.000006 -18.285084 -15.140844 32.038703 -207.943853
-5.767199 25.147404 8.504608 2.861477 5.604723 4.677368 -0.204901 1.598101 7.917305 -3.043787 0.738570 -2.694140 -0.000000 -0.000003 3.404104 -4.072752 -17.604247 -2.334199 0.000001 -0.000001 7.928602 -41.265561 11.252954 20.408554 0.000000 0.000001 2.173902 -3.793584 1.963933 -5.408820 2.833799 -1.396299 4.843299 26.970551 -1.592955 -5.182605 4.363593 0.000005 -0.000005 -25.209856 17.042225 -122.664160 0.000001 -0.000003 -10.306893 562.519190 -186.789350 536.254653 0.000003 -0.000002 -12.404898 54.393526 370.026728 -342.767060 -2.354801 -1.897202 5.063108 -1.579631 7.587664 -4.964139 -4.375793 -0.000002 -0.000006 7.621676 -0.476665 134.937176 0.000001 0.000000 -10.004991 -556.614628 -180.359874 -538.820510 0.000000 -0.000001 -13.174894 -54.989515 0.993363 350.512413 2.240598 0.386804 -2.614101 143.225556 -28.683946 110.438053 0.000001 0.000000 -18.592892 -117.530289 33.947977 135.725626 0.000001 0.000000 -18.765799 9.830564 33.960862 -5.121158 -2.014898 -0.220895 -2.615899 -117.310876 -14.641159 -97.604073 0.000001 0.000004 -18.633884 171.444128 25.633893 -175.519087 -0.000005 -0.000005 -18.285084 -15.096347 32.049433 -207.999642
